#!OML:ASF F:\VICON\USERDATA\INSTALL\rory3\rory3.ASF
:FULLY-SPECIFIED
:DEGREES
188
root -0.0885318 18.2322 0.837746 3.95954 57.8064 3.74844
lowerback 8.37029 1.19765 0.0512564
upperback 0.025402 1.63126 0.507723
thorax -4.68247 0.814381 0.297764
lowerneck -21.5946 -6.43642 -12.5064
upperneck 27.8569 -7.40968 9.01525
head 13.9537 -3.26791 4.38074
rclavicle -3.98066e-014 4.37326e-015
rhumerus -34.741 -11.7832 -76.8763
rradius 30.9421
rwrist 6.92052
rhand -15.4824 8.23161
rfingers 7.12502
rthumb 10.6995 -21.4759
lclavicle -3.98066e-014 4.37326e-015
lhumerus -36.688 5.39842 82.5722
lradius 39.0471
lwrist -3.98072
lhand -17.0749 24.7382
lfingers 7.12502
lthumb 9.1631 54.5191
rfemur -6.08684 -16.4661 22.8461
rtibia 24.7179
rfoot -14.5025 -34.3675
rtoes 24.1493
lfemur -3.49717 4.75312 -22.6029
ltibia 13.0282
lfoot -4.78435 18.6815
ltoes 9.82009
189
root -0.0601351 18.2146 0.818887 4.59739 58.6246 4.55876
lowerback 8.31903 1.17642 -0.314
upperback 0.0406831 1.56052 0.3652
thorax -4.643 0.786081 0.365015
lowerneck -21.5592 -6.39971 -12.5088
upperneck 27.8072 -7.37646 9.08378
head 13.9235 -3.24418 4.41496
rclavicle -7.43455e-014 2.78299e-015
rhumerus -34.7177 -11.8199 -76.9821
rradius 30.998
rwrist 6.77844
rhand -15.5862 8.16921
rfingers 7.12502
rthumb 10.5994 -21.5435
lclavicle -7.43455e-014 2.78299e-015
lhumerus -36.7518 5.37639 82.5075
lradius 39.0083
lwrist -3.76491
lhand -17.2642 24.9424
lfingers 7.12502
lthumb 8.9804 54.7313
rfemur -6.22618 -16.79 22.2244
rtibia 25.4738
rfoot -14.6771 -34.2937
rtoes 23.7441
lfemur -3.24764 5.5658 -23.2219
ltibia 12.1805
lfoot -2.67696 17.5463
ltoes 1.58272
190
root -0.0341723 18.223 0.794391 4.91926 59.3918 4.9949
lowerback 8.32603 1.14616 -0.529941
upperback 0.0608483 1.49946 0.362933
thorax -4.63084 0.760785 0.49152
lowerneck -21.5738 -6.34879 -12.5394
upperneck 27.7921 -7.27761 9.06168
head 13.9067 -3.20657 4.42983
rclavicle 8.24956e-014 0
rhumerus -34.5797 -11.7521 -76.9696
rradius 31.008
rwrist 6.63342
rhand -15.5579 8.13853
rfingers 7.12502
rthumb 10.6267 -21.5728
lclavicle 8.24956e-014 0
lhumerus -36.7876 5.25524 82.682
lradius 39.0014
lwrist -2.94541
lhand -18.1871 25.8609
lfingers 7.12502
lthumb 8.08974 55.6861
rfemur -6.31489 -16.8946 21.8112
rtibia 26.1239
rfoot -15.0892 -34.2739
rtoes 24.597
lfemur -2.70633 4.85516 -23.4379
ltibia 11.3871
lfoot -3.27933 17.1988
ltoes 6.36118
191
root -0.00773536 18.2195 0.767222 5.05286 60.1051 5.29575
lowerback 8.40389 1.16878 -0.663755
upperback 0.11969 1.51763 0.379773
thorax -4.61751 0.773024 0.581025
lowerneck -21.6397 -6.3575 -12.4819
upperneck 27.8065 -7.24119 8.87774
head 13.9103 -3.20723 4.3506
rclavicle 4.45278e-014 -1.15295e-014
rhumerus -34.4516 -11.8175 -76.8461
rradius 31.04
rwrist 6.68792
rhand -15.4316 8.24367
rfingers 7.12502
rthumb 10.7485 -21.4614
lclavicle 4.45278e-014 -1.15295e-014
lhumerus -36.7514 5.10878 82.854
lradius 39.0099
lwrist -2.39568
lhand -18.4613 26.2333
lfingers 7.12502
lthumb 7.82509 56.0685
rfemur -6.29613 -17.0239 21.4676
rtibia 26.6683
rfoot -15.0962 -34.3223
rtoes 24.4506
lfemur -2.27477 4.63542 -23.672
ltibia 10.724
lfoot -2.43453 16.6536
ltoes 3.62177
192
root 0.0201189 18.2184 0.740249 5.17643 60.7615 5.56196
lowerback 8.50166 1.23959 -0.67526
upperback 0.12985 1.60669 0.300937
thorax -4.66133 0.816557 0.49267
lowerneck -21.6644 -6.40095 -12.3612
upperneck 27.8744 -7.31135 8.76969
head 13.9433 -3.2372 4.27399
rclavicle 1.68967e-014 1.98785e-015
rhumerus -34.505 -12.047 -76.7792
rradius 31.1115
rwrist 6.84418
rhand -15.4104 8.44233
rfingers 7.12502
rthumb 10.7689 -21.2616
lclavicle 1.68967e-014 1.98785e-015
lhumerus -36.8107 4.82237 82.8603
lradius 39.0356
lwrist -2.24959
lhand -18.1217 26.0108
lfingers 7.12502
lthumb 8.15285 55.8335
rfemur -6.20854 -17.1927 21.1417
rtibia 27.0181
rfoot -14.8887 -34.3362
rtoes 23.8839
lfemur -2.01925 4.5528 -23.8777
ltibia 10.4263
lfoot -2.1591 16.1347
ltoes 2.82452
193
root 0.0487942 18.2207 0.714195 5.06809 61.3568 5.47117
lowerback 8.50693 1.29779 -0.525859
upperback 0.128286 1.69754 0.273153
thorax -4.66204 0.857857 0.368477
lowerneck -21.6667 -6.40883 -12.4206
upperneck 27.867 -7.33782 8.89347
head 13.9533 -3.2371 4.33043
rclavicle 3.762e-014 -7.95139e-015
rhumerus -34.4957 -12.0531 -76.8471
rradius 31.2946
rwrist 6.54527
rhand -15.4805 8.4
rfingers 7.12502
rthumb 10.7012 -21.3075
lclavicle 3.762e-014 -7.95139e-015
lhumerus -36.8483 4.77105 82.7956
lradius 38.9839
lwrist -2.36796
lhand -17.941 25.9729
lfingers 7.12502
lthumb 8.32728 55.7888
rfemur -6.22246 -17.2676 21.0202
rtibia 27.3997
rfoot -14.7512 -34.3537
rtoes 23.7991
lfemur -1.81373 4.55768 -23.8883
ltibia 10.0908
lfoot -2.32045 15.6907
ltoes 4.59653
